# This file uses meters as units for non-parametric coordinates.

mtllib pushblocktextured.mtl
g default
v 15.000000 0.499993 89.857832
v 85.000000 0.499993 89.857832
v 15.000000 70.500001 89.857832
v 85.000000 70.500001 89.857832
v 15.000000 70.500001 19.857826
v 85.000000 70.500001 19.857826
v 15.000000 0.499993 19.857826
v 85.000000 0.499993 19.857826
vt 0.800000 0.900000
vt 0.400000 0.700000
vt 0.900000 0.900000
vt 0.400000 0.800000
vt 0.700000 0.900000
vt 0.700000 1.000000
vt 0.400000 1.000000
vt 0.400000 0.900000
vt 0.500000 0.900000
vt 0.500000 0.999118
vt 0.500000 0.700000
vt 0.500000 0.800000
vt 0.200000 0.900000
vt 0.300000 0.900000
vt 0.100000 1.000000
vt 0.000000 1.000000
vt 0.000000 0.900000
vt 0.100000 0.900000
vt 0.300000 1.000000
vt 0.200000 1.000000
vt 0.600000 1.000000
vt 0.600000 0.900000
vt 0.900000 1.000000
vt 0.800000 1.000000
vn 0.000000 0.000000 1.000000
vn 0.000000 0.000000 1.000000
vn 0.000000 0.000000 1.000000
vn 0.000000 0.000000 1.000000
vn 0.000000 1.000000 0.000000
vn 0.000000 1.000000 0.000000
vn 0.000000 1.000000 0.000000
vn 0.000000 1.000000 0.000000
vn 0.000000 0.000000 -1.000000
vn 0.000000 0.000000 -1.000000
vn 0.000000 0.000000 -1.000000
vn 0.000000 0.000000 -1.000000
vn 0.000000 -1.000000 0.000000
vn 0.000000 -1.000000 0.000000
vn 0.000000 -1.000000 0.000000
vn 0.000000 -1.000000 0.000000
vn 1.000000 0.000000 0.000000
vn 1.000000 0.000000 0.000000
vn 1.000000 0.000000 0.000000
vn 1.000000 0.000000 0.000000
vn -1.000000 0.000000 0.000000
vn -1.000000 0.000000 0.000000
vn -1.000000 0.000000 0.000000
vn -1.000000 0.000000 0.000000
s off
g pCube2
usemtl lambert2SG
f 1/1/1 2/3/2 4/23/3 3/24/4
f 3/5/5 4/6/6 6/21/7 5/22/8
f 5/15/9 6/16/10 8/17/11 7/18/12
f 7/7/13 8/8/14 2/9/15 1/10/16
f 2/2/17 8/11/18 6/12/19 4/4/20
f 7/13/21 1/14/22 3/19/23 5/20/24
