# This file uses meters as units for non-parametric coordinates.

mtllib straightaf.mtl
g default
v 0.000000 0.000000 100.000000
v 100.000000 0.000000 100.000000
v 0.000000 10.000000 100.000000
v 100.000000 10.000000 100.000000
v 0.000000 10.000000 0.000000
v 100.000000 10.000000 0.000000
v 0.000000 0.000000 0.000000
v 100.000000 0.000000 0.000000
v 10.000000 10.000000 100.000000
v 90.000000 10.000000 100.000000
v 90.000000 10.000000 0.000000
v 10.000000 10.000000 0.000000
v 10.000000 0.500000 100.000000
v 90.000000 0.500000 100.000000
v 90.000000 0.500000 0.000000
v 10.000000 0.500000 0.000000
vt 0.200000 0.650000
vt 0.200000 0.650000
vt 0.200000 0.350000
vt 0.200000 0.350000
vt 0.600000 0.500000
vt 0.500000 0.500000
vt 0.500000 0.400000
vt 0.600000 0.400000
vt 0.500000 0.500000
vt 0.600000 0.500000
vt 0.300000 0.350000
vt 0.300000 0.650000
vt 0.300000 0.350000
vt 0.300000 0.650000
vt 0.300000 0.350000
vt 0.300000 0.350000
vt 0.300000 0.650000
vt 0.300000 0.650000
vt 0.200000 0.650000
vt 0.200294 0.650000
vt 0.200000 0.350000
vt 0.200000 0.350000
vt 0.500000 0.400000
vt 0.600000 0.400000
vt 0.200000 0.650000
vt 0.200000 0.350000
vt 0.300000 0.350000
vt 0.300000 0.649649
vt 0.300000 0.350000
vt 0.300000 0.650000
vt 0.200000 0.650000
vt 0.200000 0.350000
vn 0.000000 1.000000 0.000000
vn 0.000000 1.000000 0.000000
vn 0.000000 1.000000 0.000000
vn 0.000000 1.000000 0.000000
vn 0.000000 -1.000000 0.000000
vn 0.000000 -1.000000 0.000000
vn 0.000000 -1.000000 0.000000
vn 0.000000 -1.000000 0.000000
vn 1.000000 0.000000 0.000000
vn 1.000000 0.000000 0.000000
vn 1.000000 0.000000 0.000000
vn 1.000000 0.000000 0.000000
vn -1.000000 0.000000 0.000000
vn -1.000000 0.000000 0.000000
vn -1.000000 0.000000 0.000000
vn -1.000000 0.000000 0.000000
vn 0.000000 1.000000 0.000000
vn 0.000000 1.000000 0.000000
vn 0.000000 1.000000 0.000000
vn 0.000000 1.000000 0.000000
vn 0.000000 1.000000 0.000000
vn 0.000000 1.000000 0.000000
vn 0.000000 1.000000 0.000000
vn 0.000000 1.000000 0.000000
vn -1.000000 0.000000 0.000000
vn -1.000000 0.000000 0.000000
vn -1.000000 0.000000 0.000000
vn -1.000000 0.000000 0.000000
vn 1.000000 0.000000 0.000000
vn 1.000000 0.000000 0.000000
vn 1.000000 0.000000 0.000000
vn 1.000000 0.000000 0.000000
s off
g pCube1
usemtl lambert2SG
f 13/5/1 14/6/2 15/23/3 16/24/4
f 7/7/5 8/8/6 2/10/7 1/9/8
f 2/2/9 8/4/10 6/11/11 4/12/12
f 7/1/13 1/3/14 3/13/15 5/14/16
f 4/25/17 6/26/18 11/27/19 10/28/20
f 5/29/21 3/30/22 9/31/23 12/32/24
f 10/16/25 11/17/26 15/20/27 14/21/28
f 12/15/29 9/18/30 13/19/31 16/22/32
